HIERARCHY
ROOT pelvis
{
	OFFSET 0.000000 0.000000 0.000000
	CHANNELS 6 Xposition Yposition Zposition Zrotation Xrotation Yrotation
	JOINT lfemur
	{
		OFFSET 11.446000 0.000000 0.000000
		CHANNELS 3 Zrotation Xrotation Yrotation
		JOINT ltibia
		{
			OFFSET 0.000000 -42.030400 0.000000
			CHANNELS 3 Zrotation Xrotation Yrotation
			JOINT lfoot
			{
				OFFSET 0.000000 -39.930200 0.000000
				CHANNELS 3 Zrotation Xrotation Yrotation
				JOINT ltoes
				{
					OFFSET 0.000000 0.000000 11.775800
					CHANNELS 3 Zrotation Xrotation Yrotation
					End Site
					{
					    OFFSET 0.000000 0.000000 5.000000
					}
				}
			}
		}
	}
	JOINT rfemur
	{
		OFFSET -11.446000 0.000000 0.000000
		CHANNELS 3 Zrotation Xrotation Yrotation
		JOINT rtibia
		{
			OFFSET 0.000000 -42.030400 0.000000
			CHANNELS 3 Zrotation Xrotation Yrotation
			JOINT rfoot
			{
				OFFSET 0.000000 -39.930200 0.000000
				CHANNELS 3 Zrotation Xrotation Yrotation
				JOINT rtoes
				{
					OFFSET 0.000000 0.000000 11.775800
					CHANNELS 3 Zrotation Xrotation Yrotation
					End Site
					{
					    OFFSET 0.000000 0.000000 5.000000
					}
				}
			}
		}
	}
	JOINT thorax
	{
		OFFSET 0.000000 11.255600 -5.000000
		CHANNELS 3 Zrotation Xrotation Yrotation
		JOINT head
		{
			OFFSET 0.000000 43.799300 0.000000
			CHANNELS 3 Zrotation Xrotation Yrotation
			End Site
			{
			    OFFSET 0.000000 5.000000 0.000000
			}
		}
		JOINT lclavicle
		{
			OFFSET 0.000000 39.863000 0.000000
			CHANNELS 3 Zrotation Xrotation Yrotation
			JOINT lhumerus
			{
				OFFSET 17.380600 4.958300 0.000000
				CHANNELS 3 Zrotation Xrotation Yrotation
				JOINT lradius
				{
					OFFSET 0.000000 -27.561300 0.000000
					CHANNELS 3 Zrotation Xrotation Yrotation
					JOINT lhand
					{
						OFFSET 0.000000 -26.933000 0.000000
						CHANNELS 3 Zrotation Xrotation Yrotation
						End Site
						{
						    OFFSET 0.000000 -5.000000 0.000000
						}
					}
				}
			}
		}
		JOINT rclavicle
		{
			OFFSET 0.000000 39.863000 0.000000
			CHANNELS 3 Zrotation Xrotation Yrotation
			JOINT rhumerus
			{
				OFFSET -17.380600 4.958300 0.000000
				CHANNELS 3 Zrotation Xrotation Yrotation
				JOINT rradius
				{
					OFFSET 0.000000 -27.561300 0.000000
					CHANNELS 3 Zrotation Xrotation Yrotation
					JOINT rhand
					{
						OFFSET 0.000000 -26.933000 0.000000
						CHANNELS 3 Zrotation Xrotation Yrotation
						End Site
						{
						    OFFSET 0.000000 -5.000000 0.000000
						}
					}
				}
			}
		}
	}
}
MOTION
Frames:	18
Frame Time:	0.0333333
-209.03 89.2532 78.7329 0.499916 2.11907 88.9749 -1.20693 -2.14364 1.06306 1.36761 8.73036 10.5371 2.27567 6.33511 -0.065747 -1.45115e-015 -5 1.59635e-015 0.0170091 -0.614697 -2.28262 -0.536046 12.9742 -12.1974 -1.8629 2.57385 -0.137524 -4.77047e-016 -5 -3.1927e-015 -4.13836 -2.65436 -1.17113 0.812023 22.8552 2.49421 -3.97569e-016 -3.31722e-015 -7.95139e-016 11.5808 -12.509 63.052 4.29728 -0.171177 -122.649 8.64575 -7.96343 -8.92921 -3.97569e-016 -3.31722e-015 -7.95139e-016 -13.4559 -4.34817 -24.2152 15.0187 -2.21532 64.8021 -1.04477 0.0574821 9.88443 
-208.917 89.2538 78.6653 0.561237 2.13346 88.9468 -1.29601 -1.93012 0.99839 1.41036 8.58916 10.6303 2.14746 6.33213 -0.0606507 -1.57045e-015 -5 4.78906e-015 -0.0767628 -0.453853 -2.38281 -0.51814 12.9374 -12.0683 -1.78307 2.53853 -0.137786 3.97569e-016 -5 -0 -4.26584 -2.62049 -1.25204 0.880011 22.89 2.31363 1.31038e-032 -9.44227e-016 7.95139e-016 11.7462 -12.4385 63.2255 4.35231 -0.103242 -122.854 9.48347 -7.76829 -8.84847 1.31038e-032 -9.44227e-016 7.95139e-016 -13.1476 -3.8443 -23.6086 14.7815 -2.72697 64.37 -0.953925 -0.307636 9.88701 
-208.811 89.2537 78.6146 0.504004 2.08457 88.9211 -1.31379 -1.96937 0.963815 1.46199 8.71038 10.6939 2.13176 6.20105 -0.0566529 -1.84872e-015 -5 1.59635e-015 -0.0695462 -0.350751 -2.37697 -0.501222 12.7513 -12.0641 -1.88452 2.5373 -0.138051 -5.56525e-016 -5 -6.38541e-015 -4.20853 -2.80227 -1.14914 0.926279 22.6263 2.15059 3.97569e-016 -4.2366e-015 1.19271e-015 11.498 -12.211 62.9259 4.40801 -0.107716 -122.742 9.53927 -7.70072 -8.84786 3.97569e-016 -4.2366e-015 1.19271e-015 -13.2869 -3.84298 -25.0487 14.6613 -2.12755 65.7325 -1.03603 -0.482712 9.88046 
-208.707 89.2516 78.5635 0.498161 1.99593 89.0054 -1.25656 -1.95468 0.995747 1.47174 8.80025 10.5646 2.12416 6.09193 -0.0535378 -8.14963e-016 -5 -4.78906e-015 0.0194216 -0.194663 -2.3317 -0.530247 12.5931 -12.1824 -1.87918 2.56951 -0.138333 3.97569e-016 -5 -0 -4.17983 -2.9643 -1.25241 0.743404 22.5693 2.11364 -3.97569e-016 -5.15598e-015 -3.97569e-016 11.533 -12.0825 63.0182 4.60807 -0.00304751 -122.669 9.19203 -7.88007 -8.87438 -3.97569e-016 -5.15598e-015 -3.97569e-016 -13.2955 -3.59518 -24.2651 14.8424 -2.51614 64.9871 -1.22667 -0.953455 9.86587 
-208.532 89.2431 78.4847 0.571423 1.92773 89.0996 -1.25138 -1.89195 1.01375 1.49193 9.04757 10.461 2.16305 5.87732 -0.0506266 3.43899e-015 -5 -1.59635e-015 0.074538 0.063843 -2.32151 -0.600248 12.4683 -12.2051 -1.64373 2.60512 -0.138624 -5.96354e-016 -5 -0 -4.13836 -3.00632 -1.27471 0.277306 22.6467 2.19455 0 2.00027e-015 -0 11.4431 -11.9123 63.0405 4.78521 -0.104209 -123.066 8.88096 -7.93638 -8.90511 0 2.00027e-015 -0 -13.3432 -3.57073 -23.5933 15.0216 -2.82512 63.8934 -0.859497 0.310117 9.89509 
-208.35 89.2337 78.3745 0.7065 2.02483 88.9732 -1.4667 -1.56442 0.905369 1.53359 8.94009 10.6991 2.31525 5.81749 -0.0479138 6.56007e-016 -5 -1.59635e-015 -0.148023 0.177195 -2.51632 -0.56498 12.7337 -11.9482 -1.56165 2.38147 -0.138897 1.78906e-015 -5 -0 -4.34642 -2.94082 -1.22025 0.0382484 22.3642 2.33585 4.65529e-033 6.70898e-016 -3.97569e-016 11.6334 -11.7866 63.3269 4.99958 -0.00304129 -123.408 9.23726 -7.88098 -8.87036 4.65529e-033 6.70898e-016 -3.97569e-016 -13.2311 -3.55717 -25.1348 14.768 -2.06598 65.5954 -1.17256 -0.262833 9.87678 
-208.242 89.24 78.308 0.72976 1.99004 88.8601 -1.49514 -1.48953 0.872802 1.55502 9.01163 10.8494 2.24579 5.72266 -0.0449454 -1.19271e-015 -5 -0 -0.17847 0.387587 -2.55302 -0.536354 12.4695 -11.8094 -1.61717 2.43946 -0.139204 -4.77047e-016 -5 -3.1927e-015 -4.29475 -3.07969 -1.14987 -0.693188 22.2558 2.38129 -3.97569e-016 5.37961e-015 -7.95139e-016 11.6127 -11.5962 63.3715 5.0823 -0.0748745 -123.215 9.72058 -7.30407 -8.86137 -3.97569e-016 5.37961e-015 -7.95139e-016 -13.1341 -3.46696 -25.9802 14.6074 -1.74823 66.1481 -1.14149 -0.595957 9.87377 
-208.143 89.2341 78.2464 0.702848 1.9423 88.6698 -1.5086 -1.49867 0.87878 1.56818 9.17375 11.0497 2.18422 5.55044 -0.0420092 5.36701e-016 -5 1.59635e-015 -0.114604 0.378543 -2.43642 -0.669617 12.5079 -11.7586 -1.5918 2.40496 -0.139507 -2.98177e-015 -5 -0 -3.9903 -3.55051 -1.19551 -1.72023 22.6295 2.60229 6.98294e-033 -1.00635e-015 3.97569e-016 11.397 -11.1063 63.5444 5.14926 -0.110592 -123.144 8.95698 -7.58145 -8.92453 6.98294e-033 -1.00635e-015 3.97569e-016 -13.1436 -3.35206 -26.2188 14.4961 -1.71174 66.134 -0.965023 0.0212757 9.88895 
-208.012 89.2202 78.1922 0.740285 1.83281 88.6156 -1.45293 -1.54988 0.922694 1.59577 9.55513 11.0592 2.31205 5.27285 -0.040415 1.59028e-015 -5 -0 -0.00876955 0.541241 -2.33015 -0.734486 12.417 -11.7832 -1.59941 2.39228 -0.139814 -2.46489e-015 -5 -3.1927e-015 -3.80243 -3.87375 -1.30719 -2.10025 22.69 2.71498 -1.37935e-032 -9.93923e-016 -7.95139e-016 11.3818 -10.8169 63.8209 5.22541 -0.073354 -123.147 8.49824 -7.59341 -8.97567 -1.37935e-032 -9.93923e-016 -7.95139e-016 -13.1943 -2.82273 -25.3083 14.6247 -2.17259 65.7396 -0.981431 -1.09097 9.87931 
-207.838 89.2243 78.1005 0.959407 1.91767 88.6765 -1.65128 -1.0322 0.793915 1.66805 9.16363 11.1197 2.30805 5.35813 -0.039983 -9.3427e-016 -5 -1.59635e-015 -0.211945 0.904872 -2.58177 -0.67794 12.3843 -11.5862 -1.54084 2.29254 -0.140113 -2.78262e-016 -5 -3.1927e-015 -4.12769 -3.05643 -1.28863 -2.12563 21.9859 2.55451 7.95139e-016 3.32964e-015 3.97569e-016 11.7107 -11.4609 63.9154 5.25355 -0.00299822 -123.08 9.59104 -7.3869 -8.8695 7.95139e-016 3.32964e-015 3.97569e-016 -13.1272 -3.25968 -24.6228 14.9366 -2.46043 64.5308 -0.861574 -0.900413 9.88638 
-207.787 89.2172 78.0576 0.919008 1.91009 88.6343 -1.67424 -1.11002 0.778897 1.66822 9.31779 11.1826 2.2526 5.26382 -0.0395916 -7.95139e-016 -5 -0 -0.21835 0.813376 -2.58465 -0.721952 12.5401 -11.5174 -1.64984 2.17061 -0.140409 -1.19307e-016 -5 3.1927e-015 -4.54695 -2.69232 -1.43386 -2.18556 21.928 3.05226 -7.95139e-016 -4.96962e-015 -1.59028e-015 12.287 -11.8297 64.4731 5.31862 -0.10313 -123.486 9.9589 -7.32181 -8.83416 -7.95139e-016 -4.96962e-015 -1.59028e-015 -12.4427 -3.70241 -23.545 15.0071 -3.07117 63.383 -0.628914 0.0271959 9.90349 
-207.727 89.2034 77.9987 0.912959 1.90539 88.5836 -1.7045 -1.19223 0.779812 1.64733 9.57315 11.257 2.31983 5.08632 -0.0392429 1.98785e-015 -5 -0 -0.242552 0.756252 -2.60642 -0.766834 12.7162 -11.4512 -1.65204 2.04632 -0.140701 4.96962e-016 -5 -0 -4.37708 -3.13828 -1.41855 -2.53622 22.1434 3.10846 -1.75867e-032 2.5345e-015 3.97569e-016 11.9931 -11.4439 64.3121 5.25989 -0.0259235 -123.293 9.28144 -7.54914 -8.89051 -1.75867e-032 2.5345e-015 3.97569e-016 -12.5579 -3.53611 -25.1419 14.7427 -2.19773 65.1092 -0.869043 -0.0785424 9.89221 
-207.631 89.195 77.9393 0.952331 1.90609 88.4995 -1.75339 -1.06341 0.780904 1.64166 9.54683 11.337 2.35754 5.03047 -0.0389452 3.29986e-015 -5 -3.1927e-015 -0.301942 0.810717 -2.64964 -0.769184 12.7886 -11.2999 -1.70923 1.94219 -0.14099 -1.61019e-015 -5 3.1927e-015 -4.29628 -3.37448 -1.3452 -2.64311 22.0459 2.96981 -1.19271e-015 -3.3048e-015 3.97569e-016 11.8479 -11.3316 64.3274 5.27699 -0.0886683 -123.251 9.39056 -7.58844 -8.87508 -1.19271e-015 -3.3048e-015 3.97569e-016 -12.6056 -3.34927 -25.6496 14.6516 -1.94351 65.8647 -1.09929 -0.191318 9.88116 
-207.573 89.1951 77.8928 0.932501 1.89309 88.426 -1.734 -1.02677 0.869782 1.55612 9.53012 11.3683 2.50191 4.97952 -0.0386866 3.18055e-015 -5 -0 -0.358983 0.844048 -2.70082 -0.719279 12.7429 -11.1714 -1.70088 1.94538 -0.141281 6.16269e-016 -5 -3.1927e-015 -4.42239 -3.4004 -1.36587 -2.24725 22.0268 3.13052 -3.97569e-016 -2.31087e-015 -3.97569e-016 12.0313 -11.3522 64.3392 5.07297 -0.0226956 -123.026 9.28158 -7.5111 -8.8937 -3.97569e-016 -2.31087e-015 -3.97569e-016 -12.4354 -3.33105 -24.6212 14.81 -2.34895 65.3097 -1.18095 -0.445621 9.87429 
-207.495 89.1882 77.8129 1.01766 1.98404 88.3385 -1.8515 -0.790136 0.871783 1.47626 9.33339 11.4746 2.62249 5.0033 -0.0384667 4.23413e-015 -5 -1.59635e-015 -0.550089 0.865046 -2.86333 -0.702668 12.9638 -10.9207 -1.71791 1.76263 -0.141548 -1.39149e-015 -5 -0 -4.79331 -3.29281 -1.18187 -1.9227 22.1129 3.02901 -3.97569e-016 -2.85753e-015 -0 12.2605 -11.5136 64.3017 4.98126 -0.00319011 -123.084 8.95728 -7.54577 -8.92748 -3.97569e-016 -2.85753e-015 -0 -12.1353 -3.25903 -23.1023 15.0502 -3.15515 63.7737 -1.14192 -0.283613 9.87833 
-207.449 89.1855 77.7588 1.01638 2.00115 88.4399 -1.899 -0.740982 0.84018 1.47551 9.27454 11.3818 2.61091 4.98254 -0.038274 5.36701e-016 -5 1.59635e-015 -0.584094 0.908453 -2.88127 -0.730353 12.9704 -10.98 -1.61446 1.73994 -0.141816 -1.31201e-015 -5 3.1927e-015 -4.76835 -3.46911 -1.19901 -2.11794 22.6631 3.08215 -7.95139e-016 -1.66482e-015 -3.97569e-016 12.0065 -11.4287 63.9802 4.91946 -0.051236 -122.893 7.72174 -7.54841 -9.06614 -7.95139e-016 -1.66482e-015 -3.97569e-016 -12.2114 -3.11148 -24.1183 14.8365 -2.83159 64.4767 -1.01649 -0.509685 9.88155 
-207.438 89.1699 77.7301 0.980187 1.90692 88.5207 -1.85712 -1.0025 0.808159 1.54888 9.7353 11.3578 2.56023 4.76808 -0.0380957 1.19271e-015 -5 -0 -0.412866 0.90893 -2.68481 -0.858539 12.9278 -11.2347 -1.44208 1.79862 -0.142077 1.2921e-015 -5 -0 -4.43454 -3.4182 -1.13261 -2.12729 22.8982 3.14909 -2.96559e-032 -2.13694e-015 -7.95139e-016 11.3972 -11.5501 63.5906 4.9066 -0.148808 -122.787 7.31109 -7.48709 -9.11586 -2.96559e-032 -2.13694e-015 -7.95139e-016 -12.6308 -3.40538 -25.5709 14.7136 -2.23193 65.2536 -0.910059 -0.960195 9.88729 
-207.459 89.1598 77.7192 0.891179 1.79372 88.5065 -1.76746 -1.25956 0.83706 1.58485 10.0648 11.362 2.67516 4.62488 -0.0379427 6.56007e-016 -5 -1.59635e-015 -0.24619 0.791686 -2.50198 -0.929722 12.9606 -11.4169 -1.56807 1.78836 -0.142318 -1.82889e-015 -5 6.38541e-015 -4.21316 -3.8392 -1.27224 -2.18227 23.2872 2.97627 -1.19271e-015 -1.9133e-015 -3.97569e-016 11.3011 -11.385 63.282 4.76651 -0.00297682 -122.61 8.38443 -7.18051 -9.01985 -1.19271e-015 -1.9133e-015 -3.97569e-016 -12.824 -3.40209 -26.164 14.6064 -1.86043 65.6474 -0.778314 -1.1658 9.89092 
